<svg id="blue-black" xmlns="http://www.w3.org/2000/svg" width="197" height="43" viewBox="0 0 197 43">
  <metadata><?xpacket begin="﻿" id="W5M0MpCehiHzreSzNTczkc9d"?>
<x:xmpmeta xmlns:x="adobe:ns:meta/" x:xmptk="Adobe XMP Core 5.6-c142 79.160924, 2017/07/13-01:06:39        ">
   <rdf:RDF xmlns:rdf="http://www.w3.org/1999/02/22-rdf-syntax-ns#">
      <rdf:Description rdf:about=""/>
   </rdf:RDF>
</x:xmpmeta>
                                                                                                    
                                                                                                    
                                                                                                    
                                                                                                    
                                                                                                    
                                                                                                    
                                                                                                    
                                                                                                    
                                                                                                    
                                                                                                    
                                                                                                    
                                                                                                    
                                                                                                    
                                                                                                    
                                                                                                    
                                                                                                    
                                                                                                    
                                                                                                    
                                                                                                    
                                                                                                    
                           
<?xpacket end="w"?></metadata>
<defs>
    <style>
      .cls-1 {
        fill: #222;
      }

      .cls-1, .cls-2 {
        fill-rule: evenodd;
      }

      .cls-2 {
        fill: #3353ea;
      }
    </style>
  </defs>
  <path id="consbie" class="cls-1" d="M64.628,22.527a12.352,12.352,0,0,0,4.95-.96,9.727,9.727,0,0,0,3.72-2.79l-3.12-2.88a6.675,6.675,0,0,1-5.28,2.49,7.01,7.01,0,0,1-3.48-.855,6.078,6.078,0,0,1-2.385-2.385,7.01,7.01,0,0,1-.855-3.48,7.011,7.011,0,0,1,.855-3.48A6.078,6.078,0,0,1,61.418,5.8a7.01,7.01,0,0,1,3.48-.855,6.71,6.71,0,0,1,5.28,2.46l3.12-2.88a9.89,9.89,0,0,0-3.7-2.76,13.019,13.019,0,0,0-10.77.435,10.41,10.41,0,0,0-4.08,3.87,10.663,10.663,0,0,0-1.485,5.6,10.662,10.662,0,0,0,1.485,5.6,10.41,10.41,0,0,0,4.08,3.87,12.061,12.061,0,0,0,5.805,1.4h0Zm21.66,0a12.168,12.168,0,0,0,5.88-1.41,10.508,10.508,0,0,0,5.61-9.45,10.508,10.508,0,0,0-5.61-9.45,13,13,0,0,0-11.775,0A10.465,10.465,0,0,0,76.282,6.1,10.607,10.607,0,0,0,74.8,11.667a10.606,10.606,0,0,0,1.485,5.565,10.462,10.462,0,0,0,4.11,3.885,12.253,12.253,0,0,0,5.895,1.41h0Zm0-4.14a6.663,6.663,0,0,1-3.36-.855,6.134,6.134,0,0,1-2.355-2.385,7.01,7.01,0,0,1-.855-3.48,7.011,7.011,0,0,1,.855-3.48A6.134,6.134,0,0,1,82.927,5.8a7.03,7.03,0,0,1,6.72,0A6.137,6.137,0,0,1,92,8.187a7.011,7.011,0,0,1,.855,3.48A7.01,7.01,0,0,1,92,15.147a6.137,6.137,0,0,1-2.355,2.385,6.665,6.665,0,0,1-3.36.855h0ZM115.9,1.167v12.75l-10.44-12.75h-4.02v21h4.8V9.417l10.47,12.75h3.99v-21h-4.8Zm16.68,21.36a12.3,12.3,0,0,0,4.89-.87,6.751,6.751,0,0,0,3.015-2.355,5.734,5.734,0,0,0,1-3.285,4.827,4.827,0,0,0-1.095-3.33,6.51,6.51,0,0,0-2.625-1.8,34.3,34.3,0,0,0-3.93-1.14A17.642,17.642,0,0,1,130.4,8.712a1.7,1.7,0,0,1-1.125-1.6,2.015,2.015,0,0,1,.975-1.74,5.46,5.46,0,0,1,3.015-.66,11.713,11.713,0,0,1,5.82,1.65l1.5-3.69a11.614,11.614,0,0,0-3.36-1.38,16.157,16.157,0,0,0-3.93-.48,12.183,12.183,0,0,0-4.875.87,6.662,6.662,0,0,0-2.985,2.355,5.846,5.846,0,0,0-.99,3.315,4.942,4.942,0,0,0,1.095,3.36,6.382,6.382,0,0,0,2.625,1.83,34.133,34.133,0,0,0,3.93,1.14q1.56,0.36,2.475.66a4.437,4.437,0,0,1,1.5.8,1.563,1.563,0,0,1,.585,1.245,1.858,1.858,0,0,1-.99,1.635,5.942,5.942,0,0,1-3.06.615,12.048,12.048,0,0,1-3.72-.6,11.194,11.194,0,0,1-3.21-1.59l-1.65,3.66a11.293,11.293,0,0,0,3.735,1.755,17.182,17.182,0,0,0,4.815.675h0Zm27.66-11.28a5.047,5.047,0,0,0,2.79-4.62,4.655,4.655,0,0,0-2.055-3.99,10.049,10.049,0,0,0-5.9-1.47h-10.26v21h10.86a10.97,10.97,0,0,0,6.255-1.485,4.855,4.855,0,0,0,2.145-4.245,5.258,5.258,0,0,0-1.02-3.285,5.544,5.544,0,0,0-2.82-1.9h0Zm-5.76-6.42a4.976,4.976,0,0,1,2.73.615,2.067,2.067,0,0,1,.93,1.845,2.1,2.1,0,0,1-.93,1.86,4.878,4.878,0,0,1-2.73.63h-4.83V4.827h4.83Zm0.84,13.68h-5.67v-5.19h5.67q3.87,0,3.87,2.61a2.159,2.159,0,0,1-.975,1.95,5.39,5.39,0,0,1-2.895.63h0Zm12.45,3.66h4.859v-21h-4.859v21Zm14.669-3.9v-4.86h9.75V9.627h-9.75V5.067h11.04v-3.9h-15.87v21h16.26v-3.9h-11.43Z"/>
  <path id="Business_WordPress" data-name="Business WordPress" class="cls-1" d="M60.924,36.918a2.326,2.326,0,0,0,.959-0.854,2.421,2.421,0,0,0,.357-1.33,2.18,2.18,0,0,0-.917-1.862,4.334,4.334,0,0,0-2.6-.672h-4.4V42h4.676a4.772,4.772,0,0,0,2.793-.686,2.265,2.265,0,0,0,.959-1.96,2.471,2.471,0,0,0-.49-1.575,2.513,2.513,0,0,0-1.344-.861h0ZM58.6,33.334a2.915,2.915,0,0,1,1.659.4,1.467,1.467,0,0,1,0,2.338,2.915,2.915,0,0,1-1.659.4H55.73V33.334H58.6Zm0.35,7.532H55.73V37.6h3.22q2.394,0,2.394,1.638a1.364,1.364,0,0,1-.6,1.232,3.315,3.315,0,0,1-1.792.392h0ZM70.3,34.58v3.836a2.528,2.528,0,0,1-.616,1.82,2.215,2.215,0,0,1-1.68.644,1.934,1.934,0,0,1-1.484-.553,2.3,2.3,0,0,1-.518-1.631V34.58H64.662v4.27a3.194,3.194,0,0,0,.854,2.415,3.237,3.237,0,0,0,2.338.819,3.342,3.342,0,0,0,1.449-.315,2.7,2.7,0,0,0,1.071-.889V42h1.274V34.58H70.3Zm6.034,7.5a4.066,4.066,0,0,0,2.345-.6,1.854,1.854,0,0,0,.861-1.6,1.658,1.658,0,0,0-.392-1.176,2.166,2.166,0,0,0-.945-0.595,11.365,11.365,0,0,0-1.449-.329q-0.672-.126-1.043-0.224a1.591,1.591,0,0,1-.623-0.308,0.707,0.707,0,0,1-.252-0.574,0.845,0.845,0,0,1,.448-0.742,2.476,2.476,0,0,1,1.3-.28,3.86,3.86,0,0,1,2.142.588l0.574-1.064a4,4,0,0,0-1.218-.49A6.217,6.217,0,0,0,76.6,34.51a3.762,3.762,0,0,0-2.254.609,1.9,1.9,0,0,0-.84,1.617,1.713,1.713,0,0,0,.406,1.218,2.253,2.253,0,0,0,.973.616,9.919,9.919,0,0,0,1.463.322q0.658,0.112,1.015.2a1.51,1.51,0,0,1,.6.287,0.653,0.653,0,0,1,.238.532q0,1.008-1.764,1.008a4.9,4.9,0,0,1-1.414-.21,4.016,4.016,0,0,1-1.19-.56l-0.56,1.064a3.839,3.839,0,0,0,1.316.623,6.222,6.222,0,0,0,1.75.245h0ZM81.224,42h1.344V34.58H81.224V42ZM81.9,33.152a0.883,0.883,0,0,0,.651-0.259,0.866,0.866,0,0,0,.259-0.637,0.8,0.8,0,0,0-.259-0.609A0.911,0.911,0,0,0,81.9,31.4a0.883,0.883,0,0,0-.651.259,0.849,0.849,0,0,0-.259.623,0.826,0.826,0,0,0,.259.616,0.9,0.9,0,0,0,.651.252h0Zm7.2,1.358a3.842,3.842,0,0,0-1.575.308,2.613,2.613,0,0,0-1.1.882V34.58H85.13V42h1.344V38.178a2.489,2.489,0,0,1,.63-1.827,2.313,2.313,0,0,1,1.722-.637,1.948,1.948,0,0,1,1.484.546,2.279,2.279,0,0,1,.518,1.624V42h1.344V37.73a3.222,3.222,0,0,0-.833-2.4,3.066,3.066,0,0,0-2.247-.819h0Zm12.32,3.822a4.124,4.124,0,0,0-.469-1.988,3.4,3.4,0,0,0-1.3-1.351,3.713,3.713,0,0,0-1.9-.483,3.788,3.788,0,0,0-1.911.483,3.46,3.46,0,0,0-1.33,1.351,3.934,3.934,0,0,0-.483,1.946,3.872,3.872,0,0,0,.5,1.96A3.442,3.442,0,0,0,95.924,41.6a4.725,4.725,0,0,0,3.759.175,3.25,3.25,0,0,0,1.253-.9l-0.742-.868a2.753,2.753,0,0,1-2.142.9,2.809,2.809,0,0,1-1.827-.595,2.33,2.33,0,0,1-.861-1.575h6.02a4.04,4.04,0,0,0,.028-0.406h0Zm-3.668-2.688a2.307,2.307,0,0,1,1.617.595,2.389,2.389,0,0,1,.763,1.533h-4.76a2.37,2.37,0,0,1,.763-1.54,2.323,2.323,0,0,1,1.617-.588h0Zm7.658,6.44a4.066,4.066,0,0,0,2.345-.6,1.854,1.854,0,0,0,.861-1.6,1.659,1.659,0,0,0-.392-1.176,2.173,2.173,0,0,0-.945-0.595,11.381,11.381,0,0,0-1.449-.329q-0.672-.126-1.043-0.224a1.587,1.587,0,0,1-.623-0.308,0.707,0.707,0,0,1-.252-0.574,0.844,0.844,0,0,1,.448-0.742,2.473,2.473,0,0,1,1.3-.28,3.861,3.861,0,0,1,2.142.588l0.574-1.064a4.01,4.01,0,0,0-1.218-.49,6.222,6.222,0,0,0-1.484-.182,3.762,3.762,0,0,0-2.254.609,1.9,1.9,0,0,0-.84,1.617,1.713,1.713,0,0,0,.406,1.218,2.249,2.249,0,0,0,.973.616,9.9,9.9,0,0,0,1.463.322q0.657,0.112,1.015.2a1.512,1.512,0,0,1,.595.287,0.655,0.655,0,0,1,.238.532q0,1.008-1.764,1.008a4.893,4.893,0,0,1-1.414-.21,4.006,4.006,0,0,1-1.19-.56l-0.56,1.064a3.837,3.837,0,0,0,1.316.623,6.221,6.221,0,0,0,1.75.245h0Zm7.014,0a4.066,4.066,0,0,0,2.345-.6,1.854,1.854,0,0,0,.861-1.6,1.659,1.659,0,0,0-.392-1.176,2.173,2.173,0,0,0-.945-0.595,11.381,11.381,0,0,0-1.449-.329q-0.672-.126-1.043-0.224a1.587,1.587,0,0,1-.623-0.308,0.707,0.707,0,0,1-.252-0.574,0.844,0.844,0,0,1,.448-0.742,2.473,2.473,0,0,1,1.3-.28,3.861,3.861,0,0,1,2.142.588l0.574-1.064a4.01,4.01,0,0,0-1.218-.49,6.222,6.222,0,0,0-1.484-.182,3.762,3.762,0,0,0-2.254.609,1.9,1.9,0,0,0-.84,1.617,1.713,1.713,0,0,0,.406,1.218,2.249,2.249,0,0,0,.973.616,9.9,9.9,0,0,0,1.463.322q0.657,0.112,1.015.2a1.512,1.512,0,0,1,.6.287,0.655,0.655,0,0,1,.238.532q0,1.008-1.764,1.008a4.893,4.893,0,0,1-1.414-.21,4.006,4.006,0,0,1-1.19-.56l-0.56,1.064a3.837,3.837,0,0,0,1.316.623,6.221,6.221,0,0,0,1.75.245h0ZM133.779,32.2l-2.7,8.008-2.7-8.008h-1.288l-2.758,7.966L121.683,32.2h-1.442l3.276,9.8h1.5l2.674-7.826L130.363,42h1.47l3.276-9.8h-1.33Zm5.46,9.884a3.98,3.98,0,0,0,1.981-.49,3.559,3.559,0,0,0,1.372-1.351,4.086,4.086,0,0,0,0-3.906,3.511,3.511,0,0,0-1.372-1.344,4.027,4.027,0,0,0-1.981-.483,4.071,4.071,0,0,0-1.988.483,3.509,3.509,0,0,0-1.379,1.344,4.086,4.086,0,0,0,0,3.906,3.557,3.557,0,0,0,1.379,1.351,4.023,4.023,0,0,0,1.988.49h0Zm0-1.176a2.5,2.5,0,0,1-1.281-.329,2.374,2.374,0,0,1-.9-0.924,3,3,0,0,1,0-2.73,2.327,2.327,0,0,1,.9-0.917,2.709,2.709,0,0,1,2.562,0,2.271,2.271,0,0,1,.889.917,3.054,3.054,0,0,1,0,2.73,2.316,2.316,0,0,1-.889.924,2.5,2.5,0,0,1-1.281.329h0Zm7-5.082V34.58h-1.288V42h1.344V38.3a2.579,2.579,0,0,1,.623-1.855,2.262,2.262,0,0,1,1.715-.651,2.642,2.642,0,0,1,.308.014v-1.3a3.763,3.763,0,0,0-1.666.336,2.3,2.3,0,0,0-1.036.98h0Zm9.94-4.214V35.7a2.857,2.857,0,0,0-1.12-.889,3.556,3.556,0,0,0-1.47-.3,3.9,3.9,0,0,0-1.932.476,3.427,3.427,0,0,0-1.337,1.33,4.29,4.29,0,0,0,0,3.955,3.412,3.412,0,0,0,1.337,1.337,3.9,3.9,0,0,0,1.932.476,3.51,3.51,0,0,0,1.512-.322,2.913,2.913,0,0,0,1.134-.938V42h1.288V31.612h-1.344Zm-2.478,9.3a2.5,2.5,0,0,1-1.281-.329,2.367,2.367,0,0,1-.9-0.924,3,3,0,0,1,0-2.73,2.32,2.32,0,0,1,.9-0.917,2.7,2.7,0,0,1,2.555,0,2.263,2.263,0,0,1,.9.917,3.054,3.054,0,0,1,0,2.73,2.307,2.307,0,0,1-.9.924,2.515,2.515,0,0,1-1.274.329h0ZM164.089,32.2h-3.822V42h1.4V39.032h2.422a4.54,4.54,0,0,0,3-.91,3.421,3.421,0,0,0,0-5.012,4.541,4.541,0,0,0-3-.91h0Zm-0.042,5.614h-2.38v-4.4h2.38a3.16,3.16,0,0,1,2.03.567,2.25,2.25,0,0,1,0,3.262,3.16,3.16,0,0,1-2.03.567h0Zm7.154-1.988V34.58h-1.288V42h1.344V38.3a2.579,2.579,0,0,1,.623-1.855A2.261,2.261,0,0,1,173.6,35.8a2.654,2.654,0,0,1,.308.014v-1.3a3.76,3.76,0,0,0-1.666.336,2.294,2.294,0,0,0-1.036.98h0Zm10.99,2.506a4.112,4.112,0,0,0-.469-1.988,3.4,3.4,0,0,0-1.3-1.351,3.712,3.712,0,0,0-1.9-.483,3.79,3.79,0,0,0-1.911.483,3.458,3.458,0,0,0-1.33,1.351,3.934,3.934,0,0,0-.483,1.946,3.877,3.877,0,0,0,.5,1.96A3.44,3.44,0,0,0,176.7,41.6a4.725,4.725,0,0,0,3.759.175,3.251,3.251,0,0,0,1.253-.9l-0.742-.868a2.751,2.751,0,0,1-2.142.9A2.809,2.809,0,0,1,177,40.313a2.33,2.33,0,0,1-.861-1.575h6.02a3.761,3.761,0,0,0,.028-0.406h0Zm-3.668-2.688a2.307,2.307,0,0,1,1.617.595,2.388,2.388,0,0,1,.763,1.533h-4.76a2.372,2.372,0,0,1,.763-1.54,2.323,2.323,0,0,1,1.617-.588h0Zm7.658,6.44a4.066,4.066,0,0,0,2.345-.6,1.854,1.854,0,0,0,.861-1.6A1.659,1.659,0,0,0,189,38.71a2.161,2.161,0,0,0-.945-0.595,11.381,11.381,0,0,0-1.449-.329q-0.672-.126-1.043-0.224a1.594,1.594,0,0,1-.623-0.308,0.707,0.707,0,0,1-.252-0.574,0.844,0.844,0,0,1,.448-0.742,2.478,2.478,0,0,1,1.3-.28,3.861,3.861,0,0,1,2.142.588l0.574-1.064a3.989,3.989,0,0,0-1.218-.49,6.216,6.216,0,0,0-1.484-.182,3.762,3.762,0,0,0-2.254.609,1.9,1.9,0,0,0-.84,1.617,1.713,1.713,0,0,0,.406,1.218,2.255,2.255,0,0,0,.973.616,9.931,9.931,0,0,0,1.463.322q0.659,0.112,1.015.2a1.512,1.512,0,0,1,.595.287,0.652,0.652,0,0,1,.238.532q0,1.008-1.764,1.008a4.9,4.9,0,0,1-1.414-.21,4.018,4.018,0,0,1-1.19-.56l-0.56,1.064a3.837,3.837,0,0,0,1.316.623,6.221,6.221,0,0,0,1.75.245h0Zm7.014,0a4.066,4.066,0,0,0,2.345-.6,1.854,1.854,0,0,0,.861-1.6,1.659,1.659,0,0,0-.392-1.176,2.173,2.173,0,0,0-.945-0.595,11.381,11.381,0,0,0-1.449-.329q-0.672-.126-1.043-0.224a1.587,1.587,0,0,1-.623-0.308,0.707,0.707,0,0,1-.252-0.574,0.844,0.844,0,0,1,.448-0.742,2.473,2.473,0,0,1,1.3-.28,3.861,3.861,0,0,1,2.142.588l0.574-1.064a4.01,4.01,0,0,0-1.218-.49,6.222,6.222,0,0,0-1.484-.182,3.762,3.762,0,0,0-2.254.609,1.9,1.9,0,0,0-.84,1.617,1.713,1.713,0,0,0,.406,1.218,2.249,2.249,0,0,0,.973.616,9.9,9.9,0,0,0,1.463.322q0.657,0.112,1.015.2a1.512,1.512,0,0,1,.595.287,0.655,0.655,0,0,1,.238.532q0,1.008-1.764,1.008a4.893,4.893,0,0,1-1.414-.21,4.006,4.006,0,0,1-1.19-.56l-0.56,1.064a3.837,3.837,0,0,0,1.316.623,6.221,6.221,0,0,0,1.75.245h0Z"/>
  <g id="Group_2_copy" data-name="Group 2 copy">
    <path class="cls-2" d="M14,2L32,1,45,41H27Z"/>
    <path class="cls-2" d="M13,42H23L14,19H5Z"/>
    <path class="cls-2" d="M9,42L6,32H1L4,42H9Z"/>
  </g>
</svg>
