<svg id="Layer_1" data-name="Layer 1" xmlns="http://www.w3.org/2000/svg" viewBox="0 0 181.43 59.17"><defs><style>.cls-1{fill:#010101;}.cls-2{fill:#989898;}.cls-3{fill:none;stroke:#d9b254;stroke-miterlimit:10;stroke-width:4px;}.cls-4{fill:#fff;}.cls-5{fill:#d9b255;}.cls-6{fill:#0c0c0c;}</style></defs><title>bower-logo</title><path class="cls-1" d="M269.77,375.68h10.1a7.2,7.2,0,0,1,5.18,2.21,8.07,8.07,0,0,1,2.1,5.47,9.53,9.53,0,0,1-.38,2.73,6.36,6.36,0,0,1,1.35,1.18l0,0a8.44,8.44,0,0,1,2.74,6.2,9.09,9.09,0,0,1-2.7,6.49,9.27,9.27,0,0,1-6.56,2.81H269.77Zm10.1,8.86c.45,0,.82-.73.82-1.18a1.33,1.33,0,0,0-.82-1.18h-3.64v2.36Zm1.69,11.7a2.83,2.83,0,0,0,2.81-2.81c0-1.52-1.28-2.36-2.81-2.44h-5.33v5.25Z" transform="translate(-205.5 -363.3)"/><path class="cls-1" d="M311.09,394a9.16,9.16,0,0,1-2.63,6.43,8.8,8.8,0,0,1-6.26,2.62,9,9,0,0,1-6.35-2.62,9.28,9.28,0,0,1-2.58-6.43,9.18,9.18,0,0,1,2.58-6.38A9,9,0,0,1,302.2,385a8.76,8.76,0,0,1,6.26,2.58A9.15,9.15,0,0,1,311.09,394Zm-5.93,0a3,3,0,1,0-6,0,3,3,0,1,0,6,0Z" transform="translate(-205.5 -363.3)"/><path class="cls-1" d="M312.89,395.06v-9.73h5.93v9.73a2.14,2.14,0,0,0,4.28,0v-9.73H329v9.73a8,8,0,0,1-8.07,8,8.22,8.22,0,0,1-5.7-2.28A8,8,0,0,1,312.89,395.06Z" transform="translate(-205.5 -363.3)"/><path class="cls-1" d="M347,402.73l-3.56-6.45-3.57,6.45h-5l-3.26-17.4h5.93l1.35,7.3,2.21-3.8h4.69l2.18,3.8,1.35-7.3h5.93L352,402.73Z" transform="translate(-205.5 -363.3)"/><path class="cls-1" d="M364.68,403a8.1,8.1,0,0,1-6-2.66,9.39,9.39,0,0,1-2.29-5.43,5.36,5.36,0,0,1,0-.8,8.91,8.91,0,0,1,.23-2,9.36,9.36,0,0,1,2.1-4.18,7.94,7.94,0,0,1,6-2.7,7.81,7.81,0,0,1,6,2.7,8.61,8.61,0,0,1,2.14,4.21,14.51,14.51,0,0,1,.08,3v.27H362.8v.08a2,2,0,0,0,2.1,2.24,3.68,3.68,0,0,0,2-.72,4.12,4.12,0,0,0,.79-.76l4.76,2.39a14.91,14.91,0,0,1-3.26,3.08,8.84,8.84,0,0,1-4.47,1.25Zm-1.8-11.17,0,.11h3.71l0-.11a2,2,0,0,0-1.84-1.6A1.94,1.94,0,0,0,362.88,391.83Z" transform="translate(-205.5 -363.3)"/><path class="cls-1" d="M381.41,386.32a12,12,0,0,1,5.52-1.29l-1.46,6c-2.22,0-4.06,1.14-4.06,2.55v9.15h-5.92v-17.4h5.92Z" transform="translate(-205.5 -363.3)"/><path class="cls-2" d="M275.75,418.71H272l-1,2.7h-1.24l3.52-9.26h1.19l3.53,9.26h-1.24Zm-1.86-4.88-1.42,3.74h2.84Z" transform="translate(-205.5 -363.3)"/><path class="cls-2" d="M288.8,421.41h-1.32l-3.5-4.87h-1.3v4.87h-1.11v-9.26h3.17a2.12,2.12,0,0,1,1.53.65,2.2,2.2,0,0,1,.64,1.55,2.22,2.22,0,0,1-1.64,2.13Zm-6.12-6h2.06a1.08,1.08,0,0,0,0-2.16h-2.06Z" transform="translate(-205.5 -363.3)"/><path class="cls-2" d="M299,418.94l.9.67a4.7,4.7,0,0,1-3.81,1.94,4.85,4.85,0,0,1,0-9.69,4.74,4.74,0,0,1,3.82,1.95l-.91.68a3.56,3.56,0,0,0-2.91-1.48,3.7,3.7,0,1,0,2.91,5.93Z" transform="translate(-205.5 -363.3)"/><path class="cls-2" d="M318.23,421.41h-1.64l-2-2-1.4,1.43a2.33,2.33,0,0,1-1.71.72,2.39,2.39,0,0,1-1.71-.72,2.48,2.48,0,0,1,0-3.45l1.42-1.43-.57-.59a2,2,0,0,1,0-2.75,1.93,1.93,0,0,1,2.72,0,2,2,0,0,1,0,2.76l-.54.55,1.79,1.81a1.6,1.6,0,0,0,.33-1,2.15,2.15,0,0,0-.15-.71l.91-.71a3.35,3.35,0,0,1,.36,1.42h0a2.8,2.8,0,0,1-.64,1.83Zm-4.4-2.77L312,416.78l-1.42,1.43a1.32,1.32,0,0,0,0,1.83,1.26,1.26,0,0,0,.91.39,1.31,1.31,0,0,0,.93-.39Zm-2.33-4,.52.53.57-.57a.82.82,0,0,0,0-1.16.75.75,0,0,0-1.13,0,.82.82,0,0,0-.25.57A.88.88,0,0,0,311.5,414.61Z" transform="translate(-205.5 -363.3)"/><path class="cls-2" d="M335.09,418.94l.9.67a4.7,4.7,0,0,1-3.81,1.94,4.85,4.85,0,0,1,0-9.69,4.74,4.74,0,0,1,3.82,1.95l-.91.68a3.56,3.56,0,0,0-2.91-1.48,3.7,3.7,0,1,0,2.91,5.93Z" transform="translate(-205.5 -363.3)"/><path class="cls-2" d="M349.17,416.71a4.78,4.78,0,1,1-4.78-4.85A4.81,4.81,0,0,1,349.17,416.71Zm-1.17,0a3.62,3.62,0,1,0-3.61,3.68A3.67,3.67,0,0,0,348,416.71Z" transform="translate(-205.5 -363.3)"/><path class="cls-2" d="M354.49,414.09v7.32h-1.16v-9.26h1.26l4.88,7.32v-7.32h1.15v9.26h-1.24Z" transform="translate(-205.5 -363.3)"/><path class="cls-2" d="M367.6,421.39a5.92,5.92,0,0,1-2.72-1.4l.75-.87a4.91,4.91,0,0,0,2.2,1.16,2.76,2.76,0,0,0,1.77-.15,1.46,1.46,0,0,0,.91-1.34c0-1-1-1.32-2-1.52a9.14,9.14,0,0,1-2.1-.65,2.29,2.29,0,0,1-1.18-2,2.41,2.41,0,0,1,.42-1.34,2.91,2.91,0,0,1,1.08-.87,3.6,3.6,0,0,1,2.17-.27,5.19,5.19,0,0,1,2.42,1.17l-.73.9a3.19,3.19,0,0,0-3.37-.77,1.34,1.34,0,0,0-.84,1.17c0,.88.75,1.22,1.93,1.48a8.55,8.55,0,0,1,2.1.64,2.3,2.3,0,0,1,1.27,2.09,2.55,2.55,0,0,1-.43,1.46,2.94,2.94,0,0,1-1.15.92,3.23,3.23,0,0,1-1.55.33A4.13,4.13,0,0,1,367.6,421.39Z" transform="translate(-205.5 -363.3)"/><rect class="cls-3" x="2" y="12.17" width="45" height="45"/><rect class="cls-4" x="14.42" y="9.95" width="12" height="4.5"/><polygon class="cls-5" points="22.21 20.92 18.21 24.17 18.21 0 22.21 3.25 22.21 20.92"/><polygon class="cls-5" points="26.92 58.25 22.92 58.25 22.92 21.17 26.92 23.32 26.92 58.25"/><polygon class="cls-6" points="15.92 49.5 11.92 49.5 11.92 29.5 15.92 30.66 15.92 49.5"/><polygon class="cls-6" points="39.42 49.5 35.42 49.5 35.42 22.58 39.42 24.15 39.42 49.5"/><polygon class="cls-6" points="34.17 23.25 30.17 25.25 30.17 15.58 34.17 17.14 34.17 23.25"/><text x="-205.5" y="-363.3"/></svg>